# xmcd
#
# Track frame offsets: 
#        150
#        14435
#        32600
#        48732
#        66750
#        98754
#        124473
#        143558
#        167658
#        203952
#        228282
#        242827
#        262842
#        282531
#        302979
#        329683
#
# Disc length: 4799 seconds
#
# Revision: 1
# Processed by: cddbd v1.5.2PL0 Copyright (c) Steve Scherf et al.
# Submitted via: ExactAudioCopy v1.3
#
DISCID=ec12bd10
DTITLE=Various Artist - Akella Presents - vol.43 - Blues-Rock  CD2
DYEAR=2014
DGENRE=Blues-Rock
TTITLE0=Gentlemen's Blues Club - Long Gone
TTITLE1=Dudley Taft - Blue Lady
TTITLE2=Mastodon - Just Got Paid
TTITLE3=Paul Warren - Made to be Loved
TTITLE4=Liquid Groove Mojo - Storm Warning
TTITLE5=Southern Gentlemen - End Of The World
TTITLE6=Wolfmother - Cheap Sunglasses
TTITLE7=Walter Trout - All I Want Is You
TTITLE8=Eric Gales - Sometimes Wrong Feels Right
TTITLE9=The Buddaheads - Wish I Had Everything I Want
TTITLE10=Coheed and Camria - Beer Drinkers And Hell Raisers
TTITLE11=Interstate Blues - Nobody Wanna Live
TTITLE12=Pat Travers - Outside Woman Blues
TTITLE13=Snake Head Ritual - Give
TTITLE14=Mato Nanji - Make It Right
TTITLE15=Vince Agwada - Eyes of the City
EXTD=
EXTT0=
EXTT1=
EXTT2=
EXTT3=
EXTT4=
EXTT5=
EXTT6=
EXTT7=
EXTT8=
EXTT9=
EXTT10=
EXTT11=
EXTT12=
EXTT13=
EXTT14=
EXTT15=
PLAYORDER=
